<?xml version="1.0" encoding="UTF-8" standalone="no"?>
<!DOCTYPE svg PUBLIC "-//W3C//DTD SVG 1.1//EN" "http://www.w3.org/Graphics/SVG/1.1/DTD/svg11.dtd">
<svg width="100%" height="100%" viewBox="0 0 150 150" version="1.1" xmlns="http://www.w3.org/2000/svg" xmlns:xlink="http://www.w3.org/1999/xlink" xml:space="preserve" xmlns:serif="http://www.serif.com/" style="fill-rule:evenodd;clip-rule:evenodd;stroke-linejoin:round;stroke-miterlimit:2;">
    <g id="g3" transform="matrix(1,0,0,1,7.628,10.907)">
        <path id="path5" d="M121.35,119.2C121.35,128.378 111.654,127.378 105.444,127.378L22.774,127.378C14.911,127.378 13.25,121.784 12.501,115.21C11.375,105.341 10.249,95.47 9.125,85.599C8.602,81.009 8.077,76.419 7.554,71.829C7.357,70.094 7.627,66.923 6.814,65.339C6.814,63.904 2.681,62.308 1.717,61.577C-0.627,59.799 0.839,57.601 1.745,55.309C2.833,52.556 5.538,44.204 9.393,44.204L113.913,44.204C116.99,44.204 122.55,43.061 125.477,44.384C130.061,46.456 133.029,55.133 134.287,59.565C135.079,62.297 128.353,63.355 127.97,66.398C125.807,83.646 123.643,100.893 121.48,118.141C121.45,118.501 121.41,118.851 121.36,119.201" style="fill:rgb(255,213,0);fill-rule:nonzero;"/>
        <path id="path7" d="M9.202,43.4C4.706,43.4 1.718,53.031 0.521,56.259C-2.025,63.127 5.559,61.382 6.1,66.128C7.045,74.426 7.989,82.722 8.933,91.021C9.949,99.941 10.964,108.863 11.978,117.782C12.832,125.284 17.113,128.186 24.171,128.186L107.686,128.186C114.575,128.186 121.117,127.612 122.162,119.259C124.277,102.411 126.391,85.563 128.506,68.716C128.97,65.006 129.23,65.216 132.713,62.917C137.961,59.455 131.702,50.416 128.975,46.678C125.812,42.343 121.846,43.4 117.044,43.4L10.214,43.4C9.872,43.409 9.535,43.409 9.196,43.409M13.754,119.209C11.863,102.559 9.972,85.906 8.081,69.257C7.838,67.11 8.106,64.739 6.123,63.408C2.406,60.913 0.5,60.836 2.264,56.205C3.592,52.718 5.166,48.549 7.836,45.835C9.934,43.704 16.592,45.033 19.191,45.033L124.391,45.033C127.537,45.033 129.978,51.308 131.051,53.556C132.363,56.302 134.844,59.589 131.695,61.642C130.195,62.621 127.516,63.467 127.257,65.522C126.309,73.09 125.358,80.659 124.405,88.227C123.22,97.664 122.036,107.099 120.85,116.535C120.087,122.606 117.756,126.565 111.103,126.565L28.853,126.565C23.16,126.565 13.753,127.725 13.753,119.205" style="fill:rgb(255,153,0);fill-rule:nonzero;"/>
        <path id="path9" d="M112.4,63.772L22.557,63.772C13.836,63.772 15.766,72.668 16.406,78.11C17.395,86.55 18.385,94.99 19.375,103.429C19.876,107.713 19.42,116.853 22.75,120.183C19.908,113.256 20.532,103.227 19.657,95.909C19.072,91.013 18.487,86.116 17.901,81.22C17.555,78.33 16.475,74.741 18.121,72.063C21.052,67.294 29.953,68.859 34.647,68.859L96.341,68.859C101.073,68.859 106.259,68.252 110.965,68.859C121.477,68.859 116.572,84.247 115.81,90.038C114.622,99.032 113.436,108.025 112.247,117.017C112.116,118.016 112.007,119.327 111.668,120.155C114.012,117.782 113.926,113.08 114.334,109.905C115.118,103.832 115.901,97.757 116.686,91.682C117.486,85.492 124.156,63.777 112.406,63.777" style="fill:rgb(255,185,7);fill-rule:nonzero;"/>
        <path id="path11" d="M111.59,110.66C111.59,120.914 89.741,117.357 83.711,117.357L29.563,117.357C22.607,117.357 22.736,109.806 22.168,104.824C20.793,92.744 19.416,80.665 18.04,68.583C16.483,74.866 19.373,83.967 20.09,90.253C20.996,98.206 21.903,106.156 22.809,114.109C23.72,122.107 30.935,121.02 36.851,121.02L95.784,121.02C101.93,121.02 110.55,122.621 111.596,114.27C112.544,106.713 113.491,99.156 114.438,91.598C115.054,86.686 115.669,81.776 116.285,76.863C116.606,74.295 117.564,71.108 116.867,68.524C115.107,82.556 113.347,96.601 111.587,110.65" style="fill:rgb(255,153,0);fill-rule:nonzero;"/>
        <path id="path13" d="M124.75,50.803C127.369,55.577 114.705,54.774 112.431,54.774L24.983,54.774C21.42,54.774 13.827,55.965 10.573,53.976C6.507,51.492 12.812,47.96 15.014,47.96L109.304,47.96C112.954,47.959 123.154,46.458 124.754,50.803" style="fill:rgb(255,185,7);fill-rule:nonzero;"/>
        <g id="g15">
            <path id="use20" d="M120.5,46.259L14.7,46.259C13.229,46.259 12.829,47.959 14.498,47.959L119.398,47.959C120.588,47.959 122.388,46.259 120.498,46.259" style="fill:rgb(255,153,0);fill-rule:nonzero;"/>
            <clipPath id="_clip1">
                <path id="path25" d="M120.5,46.259L14.7,46.259C13.229,46.259 12.829,47.959 14.498,47.959L119.398,47.959C120.588,47.959 122.388,46.259 120.498,46.259"/>
            </clipPath>
            <g clip-path="url(#_clip1)">
                <path d="M13.291,47.959L120.281,47.959C121.577,47.959 121.989,46.259 121,46.259L20.68,46.259C18.746,46.259 12.511,44.883 13.29,47.959" style="fill:rgb(255,153,0);fill-rule:nonzero;"/>
            </g>
        </g>
        <path id="path27" d="M123.84,54.773L14.99,54.773C14.598,54.773 8.293,54.458 10.149,56.225C10.588,56.643 11.611,56.473 12.135,56.473L123.305,56.473C124.465,56.474 125.495,54.773 123.835,54.773" style="fill:rgb(255,153,0);fill-rule:nonzero;"/>
        <path id="path29" d="M119.3,54.773L14.99,54.773L119.3,54.773" style="fill:rgb(255,153,0);fill-rule:nonzero;"/>
        <path id="path31" d="M33.562,59.742L20.283,59.742C17.804,59.742 8.168,58.126 6.236,60.058C2.27,64.024 18.139,63.273 18.79,63.273L28.293,63.273C31.676,63.273 30.542,61.222 33.562,59.742M97.081,59.742L37.692,59.742C39.76,60.753 39.594,63.274 41.768,63.274L92.549,63.274C95.213,63.273 94.614,60.952 97.081,59.742M128.31,59.742L101.209,59.742C104.149,61.181 103.097,63.274 106.372,63.274L126.136,63.274C128.406,63.273 130.756,59.742 128.316,59.742" style="fill:rgb(255,153,0);fill-rule:nonzero;"/>
        <path id="path33" d="M40.536,68.858L30.719,68.858C32.678,73.517 38.576,73.517 40.536,68.858M40.682,63.273C39.057,63.273 30.794,62.421 30.415,63.772C31.96,63.772 40.922,63.959 40.682,63.273M35.628,59.258C34.939,59.418 34.251,59.581 33.562,59.741L37.692,59.741C37.004,59.581 36.317,59.418 35.628,59.258" style="fill:rgb(191,138,5);fill-rule:nonzero;"/>
        <path id="path35" d="M40.839,63.772C36.719,63.772 29.095,61.501 30.284,67.436C30.782,69.917 34.164,68.858 36.293,68.858C40.173,68.858 42.251,68.835 40.839,63.772" style="fill:rgb(152,137,4);fill-rule:nonzero;"/>
        <path id="path37" d="M37.692,59.742C34.368,59.742 31.921,59.486 30.574,63.274L40.681,63.274C40.155,61.792 39.126,60.443 37.692,59.742" style="fill:rgb(140,178,17);fill-rule:nonzero;"/>
        <path id="path39" d="M104.05,68.858L94.234,68.858C96.195,73.514 102.1,73.519 104.05,68.858M104.2,63.273C102.584,63.273 94.299,62.429 93.935,63.772C95.482,63.772 104.44,63.959 104.2,63.273M99.147,59.258C98.459,59.418 97.769,59.581 97.081,59.741L101.212,59.741C100.522,59.581 99.837,59.418 99.149,59.258" style="fill:rgb(191,138,5);fill-rule:nonzero;"/>
        <path id="path41" d="M104.36,63.772C100.242,63.772 92.616,61.501 93.806,67.436C94.303,69.917 97.686,68.858 99.816,68.858C103.69,68.858 105.77,68.835 104.36,63.772" style="fill:rgb(152,137,4);fill-rule:nonzero;"/>
        <path id="path43" d="M101.21,59.742C97.887,59.742 95.439,59.486 94.092,63.274L104.199,63.274C103.669,61.792 102.649,60.443 101.209,59.742" style="fill:rgb(140,178,17);fill-rule:nonzero;"/>
        <path id="path45" d="M101.12,64.059C95.473,66.867 93.504,59.434 91.676,55.76C88.2,48.775 84.728,41.792 81.253,34.808C79.211,30.709 62.535,5.775 71.082,1.529C75.682,-2.234 88.489,27.982 89.774,30.566C93.247,37.55 96.721,44.535 100.195,51.52C102.015,55.195 106.755,61.252 101.115,64.059" style="fill:rgb(119,170,232);fill-rule:nonzero;"/>
        <path id="path52" d="M70.566,0.899C61.405,5.369 77.732,29.564 79.92,33.962C83.447,41.055 86.977,48.147 90.505,55.24C92.363,58.978 94.32,66.456 99.8,65.364C107.696,63.789 103.874,57.087 101.738,52.789C98.393,46.067 95.049,39.345 91.706,32.622C88.294,25.762 84.882,18.902 81.47,12.041C79.761,8.614 75.44,-3.097 70.564,0.899M95.924,62.486C91.275,53.138 86.624,43.791 81.975,34.444C78.964,28.39 75.953,22.336 72.942,16.281C71.414,13.212 69.144,10.122 69.556,6.552C69.88,3.736 72.036,-0.245 74.817,3.125C77.146,5.949 77.555,9.807 79.222,13.093C82.835,20.217 86.514,27.307 90.193,34.398C93.691,41.136 97.197,47.869 100.709,54.599C101.461,56.039 102.213,57.481 102.967,58.921C104.777,62.38 97.684,66.015 95.923,62.486" style="fill:url(#_Radial2);fill-rule:nonzero;"/>
        <path id="path54" d="M74.978,6.221C74.791,8.078 76.988,11.17 77.748,12.742C79.782,16.961 81.902,21.138 84.015,25.318C84.893,27.055 91.727,43.961 93.016,44.089C91.576,43.944 88.865,37.857 88.227,36.799C85.268,31.88 82.368,26.923 79.415,21.999C76.99,17.956 74.616,13.822 71.855,9.993C68.499,5.339 75.669,-0.705 74.978,6.221" style="fill:rgb(126,216,252);fill-rule:nonzero;"/>
        <path id="path56" d="M34.415,64.059C40.062,66.867 42.031,59.434 43.86,55.76C47.335,48.775 50.808,41.792 54.282,34.808C56.319,30.71 72.995,5.775 64.449,1.53C59.85,-2.233 47.042,27.982 45.757,30.566C42.283,37.55 38.808,44.535 35.336,51.52C33.506,55.195 28.766,61.252 34.415,64.059" style="fill:rgb(119,170,232);fill-rule:nonzero;"/>
        <path id="path63" d="M62.227,0.147C58.259,1 55.341,9.471 53.645,12.88C50.171,19.864 46.697,26.848 43.224,33.832C39.956,40.401 36.688,46.973 33.42,53.542C32.665,55.063 31.909,56.581 31.154,58.1C28.916,62.6 34.939,66.689 38.904,65.127C42.197,63.83 44.098,57.105 45.482,54.323C49.057,47.136 52.632,39.948 56.209,32.762C59.304,26.541 62.398,20.318 65.493,14.097C67.338,10.385 69.76,-1.451 62.227,0.147M34.777,63.331C28.235,60.151 41.699,40.662 44.191,35.765C47.178,29.896 50.19,24.036 53.308,18.232C54.547,15.926 55.83,13.643 57.042,11.322C58.207,9.094 58.423,6.644 59.696,4.571C62.385,0.198 65.446,1.993 65.971,6.552C66.383,10.123 64.113,13.213 62.585,16.281C59.375,22.739 56.162,29.196 52.949,35.653C49.677,42.233 46.402,48.814 43.129,55.394C41.56,58.555 39.709,65.78 34.777,63.331" style="fill:url(#_Radial3);fill-rule:nonzero;"/>
        <path id="path65" d="M60.553,6.221C60.739,8.078 58.543,11.17 57.784,12.742C55.748,16.961 53.629,21.138 51.516,25.318C50.639,27.055 43.804,43.961 42.516,44.089C43.955,43.944 46.666,37.857 47.305,36.799C50.264,31.88 53.164,26.923 56.117,21.999C58.542,17.956 60.916,13.822 63.677,9.993C67.031,5.339 59.861,-0.705 60.553,6.221" style="fill:rgb(126,216,252);fill-rule:nonzero;"/>
        <path id="path67" d="M39.297,59.671C39.297,63.087 34.005,63.087 34.005,59.671C34.005,56.255 39.297,56.255 39.297,59.671" style="fill:rgb(104,160,242);fill-rule:nonzero;"/>
        <path id="path69" d="M38.482,59.671C38.482,62.041 34.818,62.041 34.818,59.671C34.818,57.302 38.482,57.302 38.482,59.671" style="fill:rgb(195,194,196);fill-rule:nonzero;"/>
        <path id="path71" d="M38.203,59.671C38.203,58.966 35.776,58.537 35.151,59.848C35.663,58.774 38.203,56.764 38.203,59.671" style="fill:rgb(229,229,229);fill-rule:nonzero;"/>
        <path id="path73" d="M101.65,59.671C101.65,63.087 96.358,63.087 96.358,59.671C96.358,56.255 101.65,56.255 101.65,59.671" style="fill:rgb(104,160,242);fill-rule:nonzero;"/>
        <path id="path75" d="M100.84,59.671C100.84,62.041 97.176,62.041 97.176,59.671C97.174,57.302 100.84,57.302 100.84,59.671" style="fill:rgb(195,194,196);fill-rule:nonzero;"/>
        <path id="path77" d="M100.56,59.671C100.56,58.966 98.133,58.537 97.509,59.848C98.017,58.774 100.56,56.764 100.56,59.671" style="fill:rgb(229,229,229);fill-rule:nonzero;"/>
    </g>
    <defs>
        <radialGradient id="_Radial2" cx="0" cy="0" r="1" gradientUnits="userSpaceOnUse" gradientTransform="matrix(138.264,13.8125,13.8125,-138.264,69.4174,-33.76)"><stop offset="0" style="stop-color:rgb(139,187,255);stop-opacity:1"/><stop offset="1" style="stop-color:rgb(13,86,172);stop-opacity:1"/></radialGradient>
        <radialGradient id="_Radial3" cx="0" cy="0" r="1" gradientUnits="userSpaceOnUse" gradientTransform="matrix(-138.325,13.8186,-13.8186,-138.325,65.7119,-34.1177)"><stop offset="0" style="stop-color:rgb(139,187,255);stop-opacity:1"/><stop offset="1" style="stop-color:rgb(13,86,172);stop-opacity:1"/></radialGradient>
    </defs>
</svg>
